<svg width="140" height="40" viewBox="0 0 140 40" fill="none" xmlns="http://www.w3.org/2000/svg">
<path d="M20.447 10.5394L25.3021 17.5637L24.788 17.8605L12.8073 15.1151L17.6767 18.1243C17.9908 18.3221 18.6477 18.7014 19.0333 18.924C19.6616 19.2867 20.3042 19.5423 21.1609 19.2785L21.4894 19.5341C20.9896 19.7896 20.604 19.9958 20.2613 20.1936C19.9186 20.3915 19.6473 20.5481 19.1761 20.8697L18.762 20.6635C19.1047 20.1854 18.9047 19.938 18.3478 19.5506C17.8909 19.2373 17.3483 18.891 16.8485 18.586L13.2071 16.3023C12.893 16.1044 12.6931 15.9725 12.4218 15.8158C11.5364 15.3047 10.7367 14.9254 9.60864 15.214L9.26593 14.9667C10.1798 14.4885 10.9509 14.0433 11.7934 13.5569L23.1601 16.1786L18.5192 9.67376C19.3046 9.22031 20.4041 8.58549 20.9182 8.23923L21.3466 8.4371C20.9896 8.90703 21.1038 9.18734 21.7464 9.55833C22.0891 9.7562 22.5889 10.0448 23.003 10.2674L27.2441 12.6005C27.7582 12.8808 28.4293 13.2189 28.9291 13.4744C29.6288 13.8289 29.9573 13.9031 30.7998 13.7135L31.1282 13.9691C30.5284 14.2659 30.2 14.4555 29.8287 14.6699C29.4575 14.8842 28.7435 15.2964 28.2294 15.6427L27.7867 15.4366C28.3294 14.909 27.5868 14.4802 26.9014 14.0845C26.5444 13.8784 26.1446 13.6476 25.7733 13.4497L20.447 10.5394Z" fill="white"/>
<rect width="22.8124" height="22.8124" rx="2.28124" transform="matrix(0.866025 0.5 -0.866025 0.5 19.7568 3.22461)" fill="#4D4D4D"/>
<path d="M17.6572 33.5234C17.697 33.5464 17.7388 33.5665 17.7803 33.5879V36.3037L1.97559 27.1787V24.4697L17.6572 33.5234ZM17.6572 31.5283C17.697 31.5513 17.7388 31.5714 17.7803 31.5928V33.3086L1.97559 24.1846V22.4746L17.6572 31.5283ZM17.6572 29.5312C17.697 29.5542 17.7388 29.5743 17.7803 29.5957V31.3135L1.97559 22.1895V20.4775L17.6572 29.5312ZM17.6572 27.5361C17.6969 27.559 17.739 27.5783 17.7803 27.5996V29.3164L1.97559 20.1924V18.4824L17.6572 27.5361ZM17.7803 24.8975V27.3213L1.97559 18.1973V15.7734L17.7803 24.8975Z" fill="#262626"/>
<path d="M37.5361 27.1797L21.7314 36.3047V33.5889C21.773 33.5674 21.8156 33.5484 21.8555 33.5254L37.5361 24.4717V27.1797ZM37.5361 24.1865L21.7314 33.3115V31.5928C21.7731 31.5713 21.8155 31.5514 21.8555 31.5283L37.5361 22.4746V24.1865ZM37.5361 22.1895L21.7314 31.3145V29.5957C21.7731 29.5742 21.8155 29.5543 21.8555 29.5312L37.5361 20.4775V22.1895ZM37.5361 20.1924L21.7314 29.3174V27.5996C21.773 27.5782 21.8156 27.5592 21.8555 27.5361L37.5361 18.4824V20.1924ZM37.5361 18.1973L21.7314 27.3223V24.8984L37.5361 15.7734V18.1973Z" fill="black"/>
<path d="M38.3555 26.0371C38.3555 26.4825 38.0426 26.8858 37.5371 27.1777V24.4678L38.3555 23.9951V26.0371ZM38.3555 23.71L37.5371 24.1826V22.4717L38.3555 21.999V23.71ZM38.3555 21.7139L37.5371 22.1865V20.4756L38.3555 20.0029V21.7139ZM38.3555 19.7178L37.5371 20.1904V18.4805L38.3555 18.0078V19.7178ZM38.3555 17.7227L37.5371 18.1953V15.7715C38.0425 15.4796 38.3555 15.0762 38.3555 14.6309V17.7227Z" fill="black"/>
<path d="M1.97559 24.4688V27.1777C1.46998 26.8858 1.15723 26.4825 1.15723 26.0371V23.9961L1.97559 24.4688ZM1.97559 22.4727V24.1836L1.15723 23.7109V22L1.97559 22.4727ZM1.97559 20.4766V22.1875L1.15723 21.7148V20.0039L1.97559 20.4766ZM1.97559 18.4814V20.1914L1.15723 19.7188V18.0088L1.97559 18.4814ZM1.15723 14.6309C1.15723 15.0763 1.46998 15.4796 1.97559 15.7715V18.1963L1.15723 17.7236V14.6309Z" fill="#262626"/>
<path d="M21.7324 36.3027C20.6413 36.9325 18.8723 36.9326 17.7812 36.3027V33.5869C18.9053 34.1674 20.6082 34.1673 21.7324 33.5869V36.3027ZM21.7324 33.3096L21.6094 33.3809C20.5866 33.9713 18.9282 33.9712 17.9053 33.3809L17.7812 33.3086V31.5908C18.9052 32.1711 20.6083 32.171 21.7324 31.5908V33.3096ZM21.7324 31.3125L21.6094 31.3838C20.5866 31.9743 18.9282 31.9742 17.9053 31.3838L17.7812 31.3115V29.5947C18.9053 30.1752 20.6082 30.1751 21.7324 29.5947V31.3125ZM21.7324 29.3174L21.6094 29.3887C20.5866 29.9791 18.9282 29.979 17.9053 29.3887L17.7812 29.3164V27.5977C18.9053 28.1782 20.6082 28.1781 21.7324 27.5977V29.3174ZM21.7324 27.3203L21.6094 27.3916C20.5866 27.9821 18.9282 27.982 17.9053 27.3916L17.7812 27.3193V24.8965C18.8723 25.5264 20.6413 25.5263 21.7324 24.8965V27.3203Z" fill="black"/>
<path d="M24.3269 18.2686L12.8796 15.5803L17.4213 18.401C17.9084 18.6988 18.4672 19.0214 18.9543 19.3026C19.5847 19.6666 20.0288 19.7741 20.8311 19.5756L21.2036 19.8403C20.6162 20.1463 20.3297 20.2952 19.9715 20.502C19.6133 20.7088 19.3984 20.8494 18.8683 21.1885L18.4098 20.9735C18.7537 20.5103 18.5674 20.2538 17.98 19.8651C17.4929 19.5342 16.9915 19.2116 16.5187 18.9056L12.8796 16.606C12.5644 16.4075 12.3495 16.2834 12.0773 16.1263C11.0744 15.5473 10.4154 15.2826 9.2979 15.5473L8.91108 15.2743C9.92829 14.7366 10.8595 14.199 11.7048 13.711L22.6506 16.2752L18.2236 9.94734C19.0116 9.4924 20.3153 8.73968 20.8311 8.39227L21.2896 8.60733C20.9314 9.07881 21.0747 9.34351 21.6907 9.73228C22.0202 9.93907 22.4644 10.1955 22.8799 10.4188L27.2066 12.7514C27.7224 13.0327 28.3671 13.3884 28.8685 13.6448C29.5849 14.0087 29.9001 14.0584 30.731 13.8598L31.1035 14.1245C30.5018 14.4223 30.1436 14.6291 29.7854 14.8359C29.4273 15.0427 28.3528 15.6631 27.837 16.0105L27.3785 15.7954C27.9229 15.266 27.1923 14.8276 26.5046 14.4306C26.1464 14.2238 25.7596 14.0005 25.3871 13.8019L20.4729 11.1467L25.0576 17.8468L24.3269 18.2686Z" fill="white"/>
<path d="M63.9624 14.4L58.8424 26.32H58.1224L53.0624 14.6L52.8224 21.66C52.8024 22.12 52.8024 23.04 52.8024 23.58C52.8024 24.46 52.9424 25.22 53.8624 25.5L53.7824 26.04C53.1224 26 52.6024 25.98 52.1224 25.98C51.6424 25.98 51.2624 25.98 50.5424 26.04L50.5024 25.5C51.3224 25.16 51.4824 24.72 51.5624 23.86C51.6224 23.16 51.6624 22.36 51.6824 21.64L51.9024 16.32C51.9224 15.86 51.9424 15.56 51.9424 15.18C51.9424 13.94 51.8424 12.92 50.7024 12.48L50.7624 11.94C51.9824 12 53.0624 12 54.2424 12L59.0224 23.14L63.6624 12C64.7624 12 66.3024 12 67.0824 11.94L67.1424 12.48C66.3224 12.8 66.0624 13.22 66.0624 14.12C66.0624 14.6 66.0624 15.3 66.0824 15.86L66.2224 21.66C66.2424 22.36 66.3024 23.24 66.3424 23.9C66.4024 24.82 66.5424 25.14 67.3624 25.5L67.2824 26.04C66.5024 25.98 66.0424 25.98 65.5224 25.98C65.0024 25.98 64.0024 25.98 63.2224 26.04L63.1624 25.48C64.1824 25.22 64.1824 24.18 64.1824 23.22C64.1824 22.72 64.1824 22.16 64.1624 21.66L63.9624 14.4ZM69.4093 19.24L68.8893 18.48C69.3493 17.7 70.4693 16.98 71.7693 16.98C72.8293 16.98 73.6693 17.32 74.1693 18.02C74.5293 18.52 74.8093 19.24 74.8093 20.28V22.04C74.8093 22.66 74.8093 23 74.8493 23.66C74.8893 24.4 75.1693 24.86 75.8093 25.22L75.5693 26.14H75.3493C73.8093 26.14 73.2893 25.52 73.0893 24.58H73.0093C72.4893 25.78 71.5693 26.3 70.6293 26.3C69.3493 26.3 68.5293 25.44 68.5293 24.38C68.5293 23.4 69.0493 22.78 69.8293 22.28C70.5893 21.8 71.8693 21.36 72.9493 21.06V20.3C72.9493 19.76 72.7893 19.3 72.5293 19C72.2093 18.62 71.7693 18.48 71.3293 18.48C70.6493 18.48 70.0893 18.72 69.4093 19.24ZM72.9493 22.78V21.92C72.5693 22.06 72.2493 22.2 71.8693 22.38C70.7493 22.9 70.3693 23.48 70.3693 24.02C70.3693 24.52 70.6893 24.9 71.2693 24.9C72.0893 24.9 72.9493 24.14 72.9493 22.78ZM79.911 20.68V22.24C79.911 22.86 79.931 23.56 79.951 24.18C79.991 24.98 80.131 25.28 80.791 25.56L80.731 26.02C79.971 25.96 79.491 25.96 78.971 25.96C78.451 25.96 77.911 25.96 77.151 26.02L77.091 25.56C77.811 25.28 77.951 24.98 77.991 24.18C78.031 23.58 78.051 22.86 78.051 22.24V21.66C78.051 21.06 78.051 20.46 77.991 19.86C77.911 19.06 77.731 18.88 77.011 18.74V18.32C78.051 17.92 78.731 17.54 79.591 16.9L80.011 17.06C79.951 18.58 79.911 19.36 79.911 20.68ZM77.651 12.64C77.651 11.88 78.211 11.32 78.971 11.32C79.731 11.32 80.291 11.88 80.291 12.64C80.291 13.4 79.731 13.96 78.971 13.96C78.211 13.96 77.651 13.4 77.651 12.64ZM85.203 14.74V22.24C85.203 22.86 85.203 23.56 85.243 24.18C85.283 24.98 85.403 25.28 86.063 25.56L86.003 26.02C85.243 25.96 84.763 25.96 84.243 25.96C83.723 25.96 83.183 25.96 82.423 26.02L82.363 25.56C83.083 25.28 83.243 24.98 83.283 24.18C83.323 23.56 83.323 22.86 83.323 22.24V15.72C83.323 15.12 83.323 14.52 83.263 13.92C83.203 13.12 83.003 12.96 82.283 12.82V12.38C83.323 11.96 83.983 11.6 84.883 10.96L85.303 11.12C85.223 12.64 85.203 13.42 85.203 14.74ZM92.0174 25.32C93.5774 25.32 94.4974 23.9 94.4974 21.76C94.4974 19.74 93.6174 18.48 92.2574 18.48C90.9174 18.48 90.2374 19.48 90.2374 21.02V23.26C90.2374 24.74 90.9174 25.32 92.0174 25.32ZM88.3774 25.52V15.78C88.3774 15.18 88.3774 14.54 88.3174 13.94C88.2374 13.14 88.0574 12.96 87.3374 12.82V12.38C88.3574 11.96 89.0374 11.6 89.9174 10.96L90.3374 11.12C90.2574 12.64 90.2374 13.42 90.2374 14.74V18.84L90.2574 18.86C90.7974 17.76 91.7374 16.94 93.0374 16.94C95.0174 16.94 96.4974 18.74 96.4974 21.26C96.4974 24.24 94.5974 26.34 91.9174 26.34C90.5974 26.34 89.2974 26.02 88.3774 25.52ZM103.609 19.16C102.949 19.16 102.769 18.68 102.209 18.68C101.509 18.68 100.809 19.48 100.809 21.44V22.28C100.809 22.88 100.809 23.56 100.849 24.18C100.909 24.98 101.049 25.3 101.789 25.56L101.729 26.02C100.969 25.96 100.389 25.96 99.8694 25.96C99.3494 25.96 98.8094 25.96 98.0494 26.02L97.9894 25.56C98.7094 25.28 98.8494 24.98 98.8894 24.18C98.9294 23.56 98.9494 22.88 98.9494 22.28V21.66C98.9494 21.06 98.9494 20.46 98.8894 19.86C98.8094 19.06 98.6294 18.88 97.9094 18.74V18.32C98.9494 17.92 99.6294 17.54 100.489 16.9L100.909 17.06C100.829 17.72 100.789 18.46 100.789 19.06H100.809C101.369 17.62 102.189 16.94 103.129 16.94C104.009 16.94 104.549 17.46 104.549 18.14C104.549 18.82 104.129 19.16 103.609 19.16ZM108.056 20.68V22.24C108.056 22.86 108.076 23.56 108.096 24.18C108.136 24.98 108.276 25.28 108.936 25.56L108.876 26.02C108.116 25.96 107.636 25.96 107.116 25.96C106.596 25.96 106.056 25.96 105.296 26.02L105.236 25.56C105.956 25.28 106.096 24.98 106.136 24.18C106.176 23.58 106.196 22.86 106.196 22.24V21.66C106.196 21.06 106.196 20.46 106.136 19.86C106.056 19.06 105.876 18.88 105.156 18.74V18.32C106.196 17.92 106.876 17.54 107.736 16.9L108.156 17.06C108.096 18.58 108.056 19.36 108.056 20.68ZM105.796 12.64C105.796 11.88 106.356 11.32 107.116 11.32C107.876 11.32 108.436 11.88 108.436 12.64C108.436 13.4 107.876 13.96 107.116 13.96C106.356 13.96 105.796 13.4 105.796 12.64ZM114.588 17.94C113.448 17.94 112.308 18.96 112.308 21.22C112.308 23.58 113.428 24.9 114.848 24.9C116.048 24.9 116.768 24 116.768 22.54V20.6C116.768 18.66 115.668 17.94 114.588 17.94ZM118.648 14.74V21.8C118.648 22.4 118.648 22.96 118.708 23.56C118.768 24.36 118.968 24.52 119.688 24.66V25.08C118.688 25.5 118.148 25.8 117.328 26.32L116.908 26.22L116.848 24.58L116.808 24.56C116.288 25.58 115.268 26.34 114.208 26.34C112.168 26.34 110.388 24.68 110.388 21.76C110.388 18.82 112.388 16.94 114.608 16.94C115.528 16.94 116.168 17.14 116.768 17.56V15.72C116.768 15.12 116.768 14.52 116.708 13.92C116.648 13.12 116.448 12.96 115.728 12.82V12.38C116.768 11.96 117.428 11.6 118.328 10.96L118.748 11.12C118.668 12.64 118.648 13.42 118.648 14.74ZM129.692 18.48L127.992 18.4C128.432 18.94 128.612 19.54 128.612 20.28C128.612 22.28 127.072 23.68 125.212 23.68C124.232 23.68 123.532 23.4 122.952 22.92C122.532 23.24 122.332 23.64 122.332 24.1C122.332 24.62 122.752 25.02 123.692 25.06L125.992 25.14C128.092 25.22 129.072 26.42 129.072 27.94C129.072 29.88 127.232 31.5 124.432 31.5C121.972 31.5 120.792 30.42 120.792 29.04C120.792 28.16 121.252 27.4 122.332 26.66C121.512 26.32 120.952 25.6 120.952 24.68C120.952 23.9 121.312 23.12 122.332 22.36C121.932 21.78 121.692 21.2 121.692 20.38C121.692 18.5 123.252 17 125.112 17C126.272 17 126.572 17.34 127.712 17.34C128.212 17.34 128.992 17.32 129.692 17.26L129.852 17.6L129.692 18.48ZM127.772 28.42C127.772 27.6 127.212 27.1 125.752 27.08C124.992 27.06 123.832 27.04 123.012 26.94C122.572 27.44 122.392 27.86 122.392 28.42C122.392 29.34 123.252 30.1 125.092 30.1C127.032 30.1 127.772 29.28 127.772 28.42ZM125.092 17.9C124.272 17.9 123.652 18.62 123.652 20.22C123.652 21.92 124.232 22.78 125.172 22.78C126.052 22.78 126.612 22.12 126.612 20.44C126.612 18.84 126.012 17.9 125.092 17.9ZM130.328 21.8C130.328 18.98 132.288 16.92 134.768 16.92C136.868 16.92 138.348 18.38 138.348 20.34C138.348 20.54 138.348 20.66 138.308 20.86H132.268C132.228 21.04 132.228 21.2 132.228 21.38C132.228 23.26 133.328 24.58 134.908 24.58C136.188 24.58 136.928 24.14 137.768 22.98L138.328 23.34C137.648 25.1 136.408 26.32 134.628 26.32C132.068 26.32 130.328 24.22 130.328 21.8ZM132.388 19.94H136.248C136.228 18.6 135.468 17.96 134.468 17.96C133.408 17.96 132.628 18.8 132.388 19.94Z" fill="black"/>
</svg>
